<?xml version="1.0" encoding="UTF-8" standalone="no"?><!DOCTYPE svg PUBLIC "-//W3C//DTD SVG 1.1//EN" "http://www.w3.org/Graphics/SVG/1.1/DTD/svg11.dtd"><svg width="100%" height="100%" viewBox="0 0 1024 1024" version="1.1" xmlns="http://www.w3.org/2000/svg" xmlns:xlink="http://www.w3.org/1999/xlink" xml:space="preserve" xmlns:serif="http://www.serif.com/" style="fill-rule:evenodd;clip-rule:evenodd;stroke-linejoin:round;stroke-miterlimit:2;"><g id="template"><path d="M511.978,494.081c0.028,-0.054 0.043,-0.08 0.043,-0.08c26.431,-0.033 29.354,-11.437 49.915,-31.996l0.123,0.123c14.383,-14.361 68.696,-67.55 79.642,-78.87l-0.001,-1.019l19.998,-20.509c38.414,38.415 62.39,91.697 62.39,150.19c0,115.147 -92.195,209.151 -206.648,212.08c-1.543,0.094 -3.132,0.144 -4.766,0.148l-0.611,0.002c-116.988,0 -212.152,-95.164 -212.152,-212.151c0,-58.493 23.976,-111.775 62.39,-150.19l19.998,20.509l-0.001,1.021c10.946,11.319 65.259,64.507 79.642,78.868l0.124,-0.123c20.56,20.56 23.483,31.964 49.914,31.997Z" style="fill:#464655;"/></g></svg>