<?xml version="1.0" encoding="UTF-8" standalone="no"?><!DOCTYPE svg PUBLIC "-//W3C//DTD SVG 1.1//EN" "http://www.w3.org/Graphics/SVG/1.1/DTD/svg11.dtd"><svg width="100%" height="100%" viewBox="0 0 1024 1024" version="1.1" xmlns="http://www.w3.org/2000/svg" xmlns:xlink="http://www.w3.org/1999/xlink" xml:space="preserve" xmlns:serif="http://www.serif.com/" style="fill-rule:evenodd;clip-rule:evenodd;stroke-linejoin:round;stroke-miterlimit:2;"><g id="template"><path d="M511.978,494.078c0.028,-0.052 0.043,-0.079 0.043,-0.079c26.472,-0.03 31.163,-13.244 49.915,-31.996l0.123,0.123l189.88,-189.1l0,-1.026c29.349,-29.349 61.141,-43.274 92.424,-0.102c22.719,31.353 52.109,81.503 67.422,148.234c6.747,29.509 10.31,60.232 10.31,91.786c0,223.885 -179.38,405.873 -402.257,410.085c-2.249,0.096 -4.547,0.148 -6.893,0.152l-0.881,0.002c-226.524,-0 -410.159,-183.635 -410.159,-410.159c0,-31.554 3.562,-62.277 10.309,-91.787c15.313,-66.73 44.703,-116.881 67.423,-148.234c31.283,-43.171 63.075,-29.246 92.423,0.103l0,1.025l189.881,189.101l0.123,-0.123c18.752,18.752 23.442,31.966 49.915,31.996l-0.001,-0.001Z" style="fill:#707487;"/></g></svg>