<?xml version="1.0" encoding="UTF-8" standalone="no"?><!DOCTYPE svg PUBLIC "-//W3C//DTD SVG 1.1//EN" "http://www.w3.org/Graphics/SVG/1.1/DTD/svg11.dtd"><svg width="100%" height="100%" viewBox="0 0 1024 1024" version="1.1" xmlns="http://www.w3.org/2000/svg" xmlns:xlink="http://www.w3.org/1999/xlink" xml:space="preserve" xmlns:serif="http://www.serif.com/" style="fill-rule:evenodd;clip-rule:evenodd;stroke-linejoin:round;stroke-miterlimit:2;"><g id="Layer1"><path d="M277.788,277.923c22.417,22.417 163.039,162.904 185.456,185.321c22.417,22.417 22.91,31.28 48.752,31.28c25.892,-0 30.452,-12.972 48.76,-31.28c22.405,-22.405 163.051,-162.916 185.456,-185.321c28.622,-28.622 59.472,-42.102 89.981,0c22.157,30.577 50.819,79.486 65.753,144.564c6.579,28.778 10.054,58.74 10.054,89.513c-0,220.914 -179.086,400 -400,400c-220.914,0 -400,-179.086 -400,-400c-0,-30.773 3.475,-60.735 10.054,-89.513c14.934,-65.078 43.596,-113.987 65.753,-144.564c30.468,-42.045 61.359,-28.622 89.981,0Z" style="fill:#707487;"/><path d="M746.077,277.923c59.905,59.906 96.957,142.665 96.957,234.077c0,182.826 -148.208,331.034 -331.034,331.034c-182.826,0 -331.034,-148.208 -331.034,-331.034c0,-91.412 37.052,-174.171 96.957,-234.077c0,0 161.36,161.36 185.321,185.321c15.892,24.15 36.56,31.28 48.756,31.28c13.473,0 35.185,-8.054 48.756,-31.28c14.191,-14.191 185.321,-185.321 185.321,-185.321Z" style="fill:#464655;"/><path d="M687.523,336.477c44.941,44.94 72.753,107.009 72.753,175.523c0,137.027 -111.249,248.276 -248.276,248.276c-137.027,0 -248.276,-111.249 -248.276,-248.276c0,-68.514 27.812,-130.583 72.753,-175.523c0,0 98.133,98.133 126.767,126.767c19.862,19.862 22.989,31.28 48.756,31.28c26.161,0 28.582,-11.106 48.756,-31.28c22.734,-22.734 126.767,-126.767 126.767,-126.767Z" style="fill:#5b5d6e;"/><path d="M658.232,365.768c37.463,37.463 60.665,89.187 60.665,146.232c0,114.09 -92.807,206.897 -206.897,206.897c-114.09,0 -206.897,-92.807 -206.897,-206.897c0,-57.045 23.202,-108.769 60.665,-146.232c0,0 70.177,70.177 97.476,97.476c20.248,20.248 22.651,31.28 48.752,31.28c25.881,-0 28.68,-11.2 48.76,-31.28c21.567,-21.567 97.476,-97.476 97.476,-97.476Z" style="fill:#464655;"/><path d="M691.31,512c-0,98.869 -80.441,179.31 -179.31,179.31c-98.869,0 -179.31,-80.441 -179.31,-179.31c-0,-49.434 20.11,-94.262 52.579,-126.731c-0,0 54.995,54.995 77.975,77.975c19.376,19.376 23.05,31.28 48.752,31.28c26.089,-0 29.135,-11.655 48.76,-31.28c23.387,-23.387 77.975,-77.975 77.975,-77.975c32.469,32.469 52.579,77.297 52.579,126.731Z" style="fill:#d7deed;"/><path d="M619.264,404.736c27.464,27.464 44.46,65.395 44.46,107.264c0,83.739 -67.985,151.724 -151.724,151.724c-83.739,0 -151.724,-67.985 -151.724,-151.724c0,-41.869 16.996,-79.8 44.46,-107.264c0,0 40.896,40.896 58.508,58.508c17.612,17.612 24.352,31.28 48.756,31.28c25.467,0 30.643,-13.167 48.756,-31.28c20.918,-20.918 58.508,-58.508 58.508,-58.508Z" style="fill:#c7cfe2;"/><path d="M599.762,424.238c22.47,22.471 36.376,53.505 36.376,87.762c-0,68.514 -55.624,124.138 -124.138,124.138c-68.514,0 -124.138,-55.624 -124.138,-124.138c-0,-34.257 13.906,-65.291 36.376,-87.762c-0,0 29.067,29.067 39.006,39.006c14.806,14.806 23.296,31.28 48.752,31.28c26.832,-0 34.12,-16.64 48.76,-31.28c7.325,-7.325 39.006,-39.006 39.006,-39.006Z" style="fill:#959cb3;"/><path d="M580.259,443.741c17.477,17.477 28.293,41.615 28.293,68.259c0,53.288 -43.264,96.552 -96.552,96.552c-53.288,0 -96.552,-43.264 -96.552,-96.552c0,-26.644 10.816,-50.782 28.293,-68.259l19.503,19.503c10.388,10.388 21.258,31.28 48.756,31.28c27.5,0 37.317,-19.841 48.756,-31.28l19.503,-19.503Z" style="fill:#afb9d2;"/><path d="M560.756,463.244c12.484,12.483 20.21,29.724 20.21,48.756c0,38.063 -30.903,68.966 -68.966,68.966c-38.063,0 -68.966,-30.903 -68.966,-68.966c0,-19.032 7.726,-36.273 20.21,-48.756c0,0 28.428,31.28 48.756,31.28c20.328,0 48.756,-31.28 48.756,-31.28Z" style="fill:#82889d;"/><circle cx="611.478" cy="550.333" r="27.586" style="fill:#d7deed;"/><circle cx="491.31" cy="532.69" r="20.69" style="fill:#fff;"/><circle cx="429.241" cy="594.759" r="34.483" style="fill:#fff;"/></g><g id="Layer2"><path d="M310.574,239.258c-8.557,8.556 -22.431,8.556 -30.988,0c-8.557,-8.557 -8.557,-22.432 0,-30.989c128.359,-128.359 336.469,-128.359 464.829,0c8.556,8.557 8.556,22.432 0,30.989c-8.557,8.556 -22.432,8.556 -30.989,0c-111.244,-111.244 -291.607,-111.244 -402.852,0Z" style="fill:#5b5d6e;"/><path d="M372.551,301.234c-8.557,8.559 -22.431,8.559 -30.988,0c-8.557,-8.557 -8.557,-22.431 0,-30.988c94.13,-94.129 246.744,-94.129 340.875,0c8.557,8.557 8.557,22.431 0,30.988c-8.559,8.559 -22.432,8.559 -30.988,0c-77.017,-77.015 -201.883,-77.015 -278.899,0Z" style="fill:#707487;"/><path d="M434.529,363.213c-8.558,8.557 -22.432,8.557 -30.989,0c-8.557,-8.559 -8.557,-22.432 0,-30.988c59.901,-59.902 157.02,-59.902 216.919,0c8.559,8.556 8.559,22.429 0,30.988c-8.556,8.557 -22.429,8.557 -30.988,0c-42.786,-42.788 -112.156,-42.788 -154.942,0Z" style="fill:#959cb3;"/><path d="M465.513,394.201c25.673,-25.672 67.295,-25.672 92.965,0c8.559,8.557 8.559,22.432 -0,30.988l-30.988,30.989c-8.557,8.556 -22.432,8.556 -30.988,0l-30.989,-30.989c-8.557,-8.556 -8.557,-22.431 0,-30.988Z" style="fill:#c7cfe2;"/></g></svg>