<?xml version="1.0" encoding="UTF-8" standalone="no"?><!DOCTYPE svg PUBLIC "-//W3C//DTD SVG 1.1//EN" "http://www.w3.org/Graphics/SVG/1.1/DTD/svg11.dtd"><svg width="100%" height="100%" viewBox="0 0 1024 1024" version="1.1" xmlns="http://www.w3.org/2000/svg" xmlns:xlink="http://www.w3.org/1999/xlink" xml:space="preserve" xmlns:serif="http://www.serif.com/" style="fill-rule:evenodd;clip-rule:evenodd;stroke-linejoin:round;stroke-miterlimit:2;"><rect x="0" y="0" width="1024" height="1024"/><g id="template"><path d="M511.978,494.078c0.028,-0.052 0.043,-0.079 0.043,-0.079c26.472,-0.03 31.163,-13.244 49.915,-31.996l0.123,0.123l189.88,-189.1l0,-1.026c29.349,-29.349 61.141,-43.274 92.424,-0.102c22.719,31.353 52.109,81.503 67.422,148.234c6.747,29.509 10.31,60.232 10.31,91.786c-0,223.885 -179.38,405.873 -402.257,410.085c-2.249,0.096 -4.547,0.148 -6.893,0.152l-0.881,0.002c-226.524,-0 -410.159,-183.635 -410.159,-410.159c-0,-31.554 3.562,-62.277 10.309,-91.787c15.313,-66.73 44.703,-116.881 67.423,-148.234c31.283,-43.171 63.075,-29.246 92.423,0.103l-0,1.025l189.881,189.101l0.123,-0.123c18.752,18.752 23.442,31.966 49.915,31.996l-0.001,-0.001Z" style="fill:#747474;"/><path d="M511.978,494.078c0.028,-0.052 0.043,-0.079 0.043,-0.079c13.819,-0.018 36.014,-8.206 49.915,-31.996l0.123,0.123l129.892,-129.122l-0.003,-1.014l59.991,-59.99c61.427,61.428 99.439,146.185 99.439,239.918c-0,185.085 -148.131,335.571 -332.305,339.367c-2.024,0.096 -4.095,0.147 -6.215,0.151l-0.795,0.002c-187.469,0 -339.441,-151.972 -339.441,-339.441c-0,-93.734 38.012,-178.49 99.438,-239.918l59.991,59.989l-0.003,1.015l129.893,129.122l0.123,-0.123c13.901,23.79 36.096,31.977 49.915,31.996l-0.001,0Z" style="fill:#474747;"/><path d="M511.978,494.081c0.028,-0.054 0.043,-0.08 0.043,-0.08c26.738,-0.027 29.252,-11.333 49.915,-31.995l0.123,0.123c15.434,-15.431 66.347,-66.082 99.638,-99.373l0.001,-1.026l30.25,-29.739c46.083,46.081 74.571,109.677 74.571,179.932c-0,138.472 -110.794,251.27 -248.494,254.507c-1.716,0.094 -3.48,0.145 -5.29,0.149c-0.224,0.002 -0.449,0.002 -0.674,0.002c-140.506,-0 -254.579,-114.073 -254.579,-254.58c-0,-70.254 28.488,-133.851 74.57,-179.931l30.251,29.738l0.001,1.028c33.291,33.291 84.204,83.94 99.638,99.371l0.123,-0.123c20.663,20.663 23.177,31.97 49.915,31.996l-0.002,0.001Z" style="fill:#5e5e5e;"/><path d="M511.978,494.081c0.028,-0.054 0.043,-0.08 0.043,-0.08c26.431,-0.033 29.354,-11.437 49.915,-31.996l0.123,0.123c14.383,-14.361 68.696,-67.55 79.642,-78.87l-0.001,-1.019l19.998,-20.509c38.414,38.415 62.39,91.697 62.39,150.19c-0,115.147 -92.195,209.151 -206.648,212.08c-1.543,0.094 -3.132,0.144 -4.766,0.148l-0.611,0.002c-116.988,-0 -212.152,-95.164 -212.152,-212.151c0,-58.493 23.976,-111.775 62.39,-150.19l19.998,20.509l-0.001,1.021c10.946,11.319 65.259,64.507 79.642,78.868l0.124,-0.123c20.56,20.56 23.483,31.964 49.914,31.997Z" style="fill:#474747;"/><path d="M511.978,494.081c0.028,-0.054 0.043,-0.08 0.043,-0.08c26.642,-0.035 29.821,-11.903 49.915,-31.996l0.124,0.123c14.715,-14.716 41.204,-40.867 59.643,-59.379l0,-1.026c11.62,-11.664 19.997,-19.484 19.997,-19.484c33.293,33.293 54.102,78.992 54.102,129.681c0,99.685 -79.748,181.099 -178.794,183.795c-1.417,0.092 -2.879,0.141 -4.385,0.145c-0.187,0.002 -0.375,0.002 -0.563,0.002c-101.379,0 -183.863,-82.483 -183.863,-183.863c-0,-50.69 20.809,-96.388 54.102,-129.681c0,0 8.377,7.82 19.997,19.485l-0,1.025c18.439,18.512 44.928,44.663 59.643,59.379l0.124,-0.123c20.094,20.093 23.273,31.962 49.915,31.997Z" style="fill:#ddd;"/><path d="M511.981,494.081c0.026,-0.055 0.041,-0.081 0.041,-0.081c26.017,-0.038 31.368,-13.448 49.915,-31.995l0.123,0.124c11.3,-11.3 27.031,-26.755 39.649,-39.384l-0,-1.025c11.33,-11.34 19.997,-19.997 19.997,-19.997c28.161,28.162 45.81,67.266 45.81,110.199c0,84.324 -67.231,153.068 -150.968,155.51c-1.282,0.091 -2.608,0.139 -3.977,0.144l-0.509,0.002c-85.865,-0 -155.577,-69.712 -155.577,-155.577c-0,-42.933 17.649,-82.037 45.811,-110.199c-0,0 8.666,8.657 19.997,19.997l-0,1.025c12.617,12.629 28.349,28.084 39.649,39.384l0.123,-0.124c18.546,18.547 23.897,31.957 49.915,31.995c-0,-0 -0,0.001 0.001,0.002Z" style="fill:#cecece;"/><path d="M511.981,494.081c0.026,-0.054 0.04,-0.081 0.041,-0.081c27.404,-0.055 34.927,-17.008 49.915,-31.995l0.124,0.123c3.4,-3.399 11.503,-11.231 19.646,-19.384l-0.001,-1.012c10.137,-10.148 20.222,-19.841 20.222,-19.841c23.041,23.043 37.302,54.904 37.302,90.031c-0,68.883 -54.831,125.059 -123.193,127.225c-1.133,0.091 -2.307,0.138 -3.523,0.142c-0.15,0.002 -0.3,0.002 -0.452,0.002c-70.255,-0 -127.29,-57.036 -127.29,-127.29c-0,-35.127 14.261,-66.988 37.301,-90.031c0,0 10.086,9.693 20.223,19.841l-0.001,1.013c8.143,8.153 16.245,15.984 19.646,19.383l0.124,-0.123c14.987,14.987 22.51,31.94 49.915,31.995c-0,-0 -0,0.001 0.001,0.002Z" style="fill:#9c9c9c;"/><path d="M511.981,494.083c0.025,-0.054 0.039,-0.082 0.04,-0.082c28.028,-0.07 38.016,-19.548 49.693,-31.269l0.002,-1.012l19.989,-19.986c17.92,17.921 29.238,42.867 29.238,70.186c0,53.461 -42.467,97.084 -95.479,98.943c-0.966,0.088 -1.971,0.136 -3.015,0.139l-0.388,0.002c-54.642,-0 -99.005,-44.363 -99.005,-99.005c0,-27.319 11.318,-52.265 29.239,-70.186l19.988,19.987l0.002,1.012c11.677,11.72 21.666,31.198 49.694,31.268c-0,0 0.001,0.001 0.002,0.003Z" style="fill:#b9b9b9;"/><path d="M511.983,494.085c0.025,-0.055 0.038,-0.084 0.039,-0.084c20.776,-0.069 34.986,-17.571 49.696,-32.281c13.8,13.8 20.938,30.686 20.938,50.201c-0,38.07 -30.148,69.154 -67.852,70.66c-0.772,0.085 -1.581,0.131 -2.426,0.134c-0.104,0.002 -0.209,0.002 -0.314,0.002c-39.03,0 -70.718,-31.687 -70.718,-70.717c0,-19.515 7.139,-36.4 20.939,-50.2c14.709,14.71 28.919,32.211 49.695,32.28c0,0 0.001,0.002 0.003,0.005Z" style="fill:#888;"/><circle cx="613.944" cy="551.227" r="28.287" style="fill:#ddd;"/><circle cx="490.721" cy="533.138" r="21.215" style="fill:#fff;"/><circle cx="427.075" cy="596.781" r="35.358" style="fill:#fff;"/><path d="M305.398,232.253c-8.774,8.774 -23.001,8.774 -31.774,-0c-8.775,-8.774 -8.775,-23.002 -0,-31.776c131.618,-131.618 345.011,-131.618 476.633,0c8.773,8.774 8.773,23.002 0,31.776c-8.773,8.774 -23.001,8.774 -31.776,-0c-114.069,-114.069 -299.012,-114.069 -413.082,-0l-0.001,-0Z" style="fill:#5e5e5e;"/><path d="M368.95,295.803c-8.774,8.776 -23.001,8.776 -31.776,0c-8.774,-8.774 -8.774,-23 0,-31.775c96.521,-96.519 253.01,-96.519 349.53,-0c8.774,8.775 8.774,23.001 0,31.775c-8.775,8.776 -23.001,8.776 -31.775,0c-78.973,-78.971 -207.009,-78.971 -285.981,0l0.002,0Z" style="fill:#747474;"/><path d="M432.501,359.355c-8.776,8.775 -23.002,8.775 -31.776,0c-8.774,-8.776 -8.774,-23.001 0,-31.774c61.422,-61.424 161.008,-61.424 222.427,-0c8.776,8.773 8.776,22.998 0,31.774c-8.772,8.775 -22.998,8.775 -31.775,0c-43.872,-43.875 -115.004,-43.875 -158.876,0Z" style="fill:#9c9c9c;"/><path d="M464.27,391.129c26.325,-26.324 69.004,-26.324 95.326,-0c8.776,8.774 8.776,23.002 0,31.775l-31.775,31.775c-8.774,8.774 -23.001,8.774 -31.774,0l-31.777,-31.775c-8.774,-8.773 -8.774,-23.001 0,-31.775Z" style="fill:#cecece;"/></g></svg>