<?xml version="1.0" encoding="UTF-8" standalone="no"?><!DOCTYPE svg PUBLIC "-//W3C//DTD SVG 1.1//EN" "http://www.w3.org/Graphics/SVG/1.1/DTD/svg11.dtd"><svg width="100%" height="100%" viewBox="0 0 1024 1024" version="1.1" xmlns="http://www.w3.org/2000/svg" xmlns:xlink="http://www.w3.org/1999/xlink" xml:space="preserve" xmlns:serif="http://www.serif.com/" style="fill-rule:evenodd;clip-rule:evenodd;stroke-linejoin:round;stroke-miterlimit:2;"><rect x="0" y="0" width="1024" height="1024"/><g id="Layer1"><path d="M512,494.561c0.027,-0.051 0.041,-0.077 0.041,-0.077c25.815,-0.029 30.389,-12.915 48.675,-31.201l0.12,0.12l185.164,-184.403l0,-1c28.619,-28.62 59.621,-42.199 90.127,-0.1c22.155,30.574 50.815,79.479 65.748,144.552c6.579,28.776 10.053,58.736 10.053,89.506c0,218.323 -174.923,395.791 -392.265,399.897c-2.193,0.094 -4.434,0.144 -6.722,0.148l-0.859,0.002c-220.897,0 -399.969,-179.073 -399.969,-399.97c0,-30.77 3.474,-60.73 10.053,-89.506c14.933,-65.073 43.593,-113.978 65.748,-144.552c30.506,-42.099 61.508,-28.52 90.127,0.1l0,1l185.164,184.403l0.12,-0.12c18.286,18.286 22.86,31.172 48.675,31.201Z" style="fill:#747474;"/><path d="M512,494.561c0.027,-0.051 0.041,-0.077 0.041,-0.077c13.476,-0.018 35.12,-8.002 48.675,-31.201l0.12,0.12l126.666,-125.915l-0.003,-0.989l58.501,-58.499c59.9,59.902 96.968,142.553 96.968,233.958c0,180.487 -144.451,327.234 -324.05,330.937c-1.974,0.093 -3.994,0.143 -6.061,0.147l-0.775,0.002c-182.812,0 -331.009,-148.197 -331.009,-331.009c0,-91.405 37.068,-174.056 96.968,-233.958l58.501,58.499l-0.003,0.99l126.666,125.914l0.12,-0.12c13.555,23.199 35.199,31.183 48.675,31.201Z" style="fill:#474747;"/><path d="M512,494.562c0.027,-0.052 0.041,-0.078 0.041,-0.078c26.074,-0.026 28.526,-11.051 48.675,-31.2l0.12,0.12c15.051,-15.048 64.699,-64.44 97.163,-96.904l0.001,-1.001l29.499,-29c44.938,44.936 72.718,106.953 72.718,175.462c0,135.032 -108.042,245.028 -242.321,248.185c-1.674,0.092 -3.394,0.141 -5.159,0.145c-0.218,0.002 -0.438,0.002 -0.657,0.002c-137.016,-0 -248.256,-111.239 -248.256,-248.255c0,-68.509 27.78,-130.526 72.718,-175.462l29.499,29l0.001,1.002c32.464,32.464 82.112,81.855 97.163,96.903l0.12,-0.12c20.149,20.149 22.601,31.175 48.675,31.201Z" style="fill:#5e5e5e;"/><path d="M512,494.562c0.027,-0.052 0.041,-0.078 0.041,-0.078c25.775,-0.032 28.625,-11.152 48.675,-31.201l0.12,0.12c14.026,-14.004 66.99,-65.872 77.664,-76.91l-0.001,-0.994l19.501,-20c37.46,37.461 60.84,89.419 60.84,146.459c0,112.287 -89.904,203.956 -201.514,206.812c-1.505,0.091 -3.054,0.14 -4.648,0.144l-0.596,0.002c-114.081,0 -206.881,-92.8 -206.881,-206.881c0,-57.04 23.38,-108.998 60.84,-146.459l19.501,20l-0.001,0.995c10.674,11.038 63.638,62.905 77.664,76.909l0.12,-0.12c20.05,20.049 22.9,31.17 48.675,31.202Z" style="fill:#474747;"/><path d="M512,494.562c0.027,-0.052 0.041,-0.078 0.041,-0.078c25.981,-0.034 29.081,-11.607 48.676,-31.201l0.12,0.12c14.35,-14.35 40.181,-39.852 58.162,-57.904l0,-1c11.331,-11.375 19.5,-19 19.5,-19c32.466,32.466 52.758,77.029 52.758,126.459c0,97.209 -77.767,176.6 -174.352,179.229c-1.382,0.09 -2.808,0.138 -4.277,0.142c-0.182,0.002 -0.365,0.002 -0.548,0.002c-98.861,0 -179.296,-80.434 -179.296,-179.296c0,-49.43 20.292,-93.993 52.758,-126.459c0,0 8.169,7.626 19.5,19.001l0,0.999c17.981,18.052 43.812,43.554 58.162,57.904l0.12,-0.12c19.595,19.594 22.695,31.168 48.676,31.202Z" style="fill:#ddd;"/><path d="M512.001,494.563c0.026,-0.053 0.04,-0.079 0.04,-0.079c25.371,-0.037 30.589,-13.114 48.675,-31.2l0.12,0.121c11.019,-11.019 26.36,-26.09 38.664,-38.405l0,-1c11.049,-11.058 19.5,-19.5 19.5,-19.5c27.462,27.462 44.673,65.595 44.673,107.461c0,82.229 -65.561,149.266 -147.218,151.647c-1.25,0.089 -2.543,0.136 -3.878,0.14l-0.497,0.002c-83.732,0 -151.712,-67.98 -151.712,-151.712c0,-41.866 17.211,-79.999 44.673,-107.461c0,0 8.451,8.442 19.5,19.5l0,1c12.304,12.315 27.645,27.386 38.664,38.405l0.12,-0.121c18.086,18.086 23.304,31.163 48.675,31.2c0,0 0,0.001 0.001,0.002Z" style="fill:#cecece;"/><path d="M512.001,494.563c0.026,-0.052 0.039,-0.079 0.04,-0.079c26.724,-0.053 34.06,-16.585 48.675,-31.2l0.121,0.12c3.316,-3.314 11.217,-10.952 19.158,-18.902l-0.001,-0.987c9.885,-9.896 19.72,-19.348 19.72,-19.348c22.468,22.47 36.375,53.54 36.375,87.794c0,67.172 -53.469,121.952 -120.132,124.065c-1.105,0.088 -2.25,0.134 -3.436,0.138c-0.146,0.002 -0.293,0.002 -0.441,0.002c-68.509,0 -124.128,-55.619 -124.128,-124.128c0,-34.254 13.907,-65.324 36.375,-87.794c0,0 9.835,9.452 19.72,19.348l-0.001,0.988c7.941,7.95 15.842,15.587 19.158,18.901l0.121,-0.12c14.615,14.615 21.951,31.147 48.675,31.2c0,0 0,0.001 0.001,0.002Z" style="fill:#9c9c9c;"/><path d="M512.002,494.564c0.025,-0.053 0.038,-0.08 0.039,-0.08c27.332,-0.068 37.072,-19.063 48.459,-30.492l0.002,-0.987l19.492,-19.49c17.475,17.476 28.512,41.802 28.512,68.443c0,52.133 -41.412,94.672 -93.107,96.485c-0.942,0.086 -1.922,0.132 -2.941,0.135l-0.378,0.002c-53.284,0 -96.545,-43.261 -96.545,-96.545c0,-26.641 11.037,-50.967 28.512,-68.443l19.492,19.491l0.002,0.987c11.387,11.429 21.127,30.423 48.459,30.491c0,0 0.001,0.001 0.002,0.003Z" style="fill:#b9b9b9;"/><path d="M512.003,494.566c0.024,-0.054 0.037,-0.082 0.038,-0.082c20.26,-0.068 34.117,-17.135 48.461,-31.479c13.457,13.457 20.418,29.923 20.418,48.953c0,37.125 -29.399,67.437 -66.166,68.905c-0.753,0.083 -1.542,0.128 -2.366,0.131c-0.102,0.002 -0.204,0.002 -0.306,0.002c-38.061,-0 -68.961,-30.9 -68.961,-68.961c0,-19.03 6.961,-35.495 20.418,-48.952c14.344,14.344 28.201,31.41 48.461,31.478c0,-0 0.001,0.002 0.003,0.005Z" style="fill:#888;"/><circle cx="611.431" cy="550.289" r="27.584" style="fill:#ddd;"/><circle cx="491.27" cy="532.648" r="20.688" style="fill:#fff;"/><circle cx="429.206" cy="594.712" r="34.48" style="fill:#fff;"/></g><g id="Layer2"><path d="M310.55,239.239c-8.556,8.556 -22.429,8.556 -30.985,0c-8.557,-8.556 -8.557,-22.43 0,-30.986c128.349,-128.349 336.441,-128.349 464.793,0c8.555,8.556 8.555,22.43 0,30.986c-8.556,8.556 -22.43,8.556 -30.987,0c-111.235,-111.235 -291.584,-111.235 -402.82,0l-0.001,0Z" style="fill:#5e5e5e;"/><path d="M372.523,301.21c-8.556,8.558 -22.429,8.558 -30.986,0c-8.556,-8.556 -8.556,-22.429 0,-30.986c94.123,-94.121 246.725,-94.121 340.848,0c8.556,8.557 8.556,22.43 0,30.986c-8.558,8.558 -22.43,8.558 -30.986,0c-77.011,-77.009 -201.867,-77.009 -278.877,0l0.001,0Z" style="fill:#747474;"/><path d="M434.496,363.185c-8.558,8.557 -22.431,8.557 -30.987,0c-8.556,-8.558 -8.556,-22.43 0,-30.985c59.896,-59.898 157.008,-59.898 216.902,0c8.558,8.555 8.558,22.427 0,30.985c-8.555,8.557 -22.427,8.557 -30.986,0c-42.782,-42.785 -112.147,-42.785 -154.929,0Z" style="fill:#9c9c9c;"/><path d="M465.477,394.169c25.671,-25.67 67.29,-25.67 92.958,0c8.558,8.556 8.558,22.431 -0,30.986l-30.986,30.986c-8.556,8.556 -22.43,8.556 -30.985,0l-30.987,-30.986c-8.556,-8.555 -8.556,-22.43 -0,-30.986Z" style="fill:#cecece;"/></g></svg>