<?xml version="1.0" encoding="UTF-8" standalone="no"?><!DOCTYPE svg PUBLIC "-//W3C//DTD SVG 1.1//EN" "http://www.w3.org/Graphics/SVG/1.1/DTD/svg11.dtd"><svg width="100%" height="100%" viewBox="0 0 1024 1024" version="1.1" xmlns="http://www.w3.org/2000/svg" xmlns:xlink="http://www.w3.org/1999/xlink" xml:space="preserve" xmlns:serif="http://www.serif.com/" style="fill-rule:evenodd;clip-rule:evenodd;stroke-linejoin:round;stroke-miterlimit:2;"><g id="template"><path d="M511.983,494.085c0.025,-0.055 0.038,-0.084 0.039,-0.084c20.776,-0.069 34.986,-17.571 49.696,-32.281c13.8,13.8 20.938,30.686 20.938,50.201c0,38.07 -30.148,69.154 -67.852,70.66c-0.772,0.085 -1.581,0.131 -2.426,0.134c-0.104,0.002 -0.209,0.002 -0.314,0.002c-39.03,0 -70.718,-31.687 -70.718,-70.717c0,-19.515 7.139,-36.4 20.939,-50.2c14.709,14.71 28.919,32.211 49.695,32.28c0,0 0.001,0.002 0.003,0.005Z" style="fill:#82889d;"/></g></svg>