<?xml version="1.0" encoding="UTF-8" standalone="no"?><!DOCTYPE svg PUBLIC "-//W3C//DTD SVG 1.1//EN" "http://www.w3.org/Graphics/SVG/1.1/DTD/svg11.dtd"><svg width="100%" height="100%" viewBox="0 0 1024 1024" version="1.1" xmlns="http://www.w3.org/2000/svg" xmlns:xlink="http://www.w3.org/1999/xlink" xml:space="preserve" xmlns:serif="http://www.serif.com/" style="fill-rule:evenodd;clip-rule:evenodd;stroke-linejoin:round;stroke-miterlimit:2;"><g id="template"><path d="M511.981,494.083c0.025,-0.054 0.039,-0.082 0.04,-0.082c28.028,-0.07 38.016,-19.548 49.693,-31.269l0.002,-1.012l19.989,-19.986c17.92,17.921 29.238,42.867 29.238,70.186c0,53.461 -42.467,97.084 -95.479,98.943c-0.966,0.088 -1.971,0.136 -3.015,0.139l-0.388,0.002c-54.642,0 -99.005,-44.363 -99.005,-99.005c0,-27.319 11.318,-52.265 29.239,-70.186l19.988,19.987l0.002,1.012c11.677,11.72 21.666,31.198 49.694,31.268c0,0 0.001,0.001 0.002,0.003Z" style="fill:#afb9d2;"/></g></svg>