<?xml version="1.0" encoding="UTF-8" standalone="no"?><!DOCTYPE svg PUBLIC "-//W3C//DTD SVG 1.1//EN" "http://www.w3.org/Graphics/SVG/1.1/DTD/svg11.dtd"><svg width="100%" height="100%" viewBox="0 0 1024 1024" version="1.1" xmlns="http://www.w3.org/2000/svg" xmlns:xlink="http://www.w3.org/1999/xlink" xml:space="preserve" xmlns:serif="http://www.serif.com/" style="fill-rule:evenodd;clip-rule:evenodd;stroke-linejoin:round;stroke-miterlimit:2;"><g id="template"><path d="M511.981,494.081c0.026,-0.054 0.04,-0.081 0.041,-0.081c27.404,-0.055 34.927,-17.008 49.915,-31.995l0.124,0.123c3.4,-3.399 11.503,-11.231 19.646,-19.384l-0.001,-1.012c10.137,-10.148 20.222,-19.841 20.222,-19.841c23.041,23.043 37.302,54.904 37.302,90.031c0,68.883 -54.831,125.059 -123.193,127.225c-1.133,0.091 -2.307,0.138 -3.523,0.142c-0.15,0.002 -0.3,0.002 -0.452,0.002c-70.255,0 -127.29,-57.036 -127.29,-127.29c0,-35.127 14.261,-66.988 37.301,-90.031c0,0 10.086,9.693 20.223,19.841l-0.001,1.013c8.143,8.153 16.245,15.984 19.646,19.383l0.124,-0.123c14.987,14.987 22.51,31.94 49.915,31.995c0,0 0,0.001 0.001,0.002Z" style="fill:#959cb3;"/></g></svg>