<?xml version="1.0" encoding="UTF-8" standalone="no"?><!DOCTYPE svg PUBLIC "-//W3C//DTD SVG 1.1//EN" "http://www.w3.org/Graphics/SVG/1.1/DTD/svg11.dtd"><svg width="100%" height="100%" viewBox="0 0 1024 1024" version="1.1" xmlns="http://www.w3.org/2000/svg" xmlns:xlink="http://www.w3.org/1999/xlink" xml:space="preserve" xmlns:serif="http://www.serif.com/" style="fill-rule:evenodd;clip-rule:evenodd;stroke-linejoin:round;stroke-miterlimit:2;"><g id="template"><path d="M511.981,494.081c0.026,-0.055 0.041,-0.081 0.041,-0.081c26.017,-0.038 31.368,-13.448 49.915,-31.995l0.123,0.124c11.3,-11.3 27.031,-26.755 39.649,-39.384l0,-1.025c11.33,-11.34 19.997,-19.997 19.997,-19.997c28.161,28.162 45.81,67.266 45.81,110.199c0,84.324 -67.231,153.068 -150.968,155.51c-1.282,0.091 -2.608,0.139 -3.977,0.144l-0.509,0.002c-85.865,0 -155.577,-69.712 -155.577,-155.577c0,-42.933 17.649,-82.037 45.811,-110.199c0,0 8.666,8.657 19.997,19.997l0,1.025c12.617,12.629 28.349,28.084 39.649,39.384l0.123,-0.124c18.546,18.547 23.897,31.957 49.915,31.995c0,0 0,0.001 0.001,0.002Z" style="fill:#c7cfe2;"/></g></svg>