<?xml version="1.0" encoding="UTF-8" standalone="no"?><!DOCTYPE svg PUBLIC "-//W3C//DTD SVG 1.1//EN" "http://www.w3.org/Graphics/SVG/1.1/DTD/svg11.dtd"><svg width="100%" height="100%" viewBox="0 0 1024 1024" version="1.1" xmlns="http://www.w3.org/2000/svg" xmlns:xlink="http://www.w3.org/1999/xlink" xml:space="preserve" xmlns:serif="http://www.serif.com/" style="fill-rule:evenodd;clip-rule:evenodd;stroke-linejoin:round;stroke-miterlimit:2;"><g id="template"><path d="M511.978,494.081c0.028,-0.054 0.043,-0.08 0.043,-0.08c26.642,-0.035 29.821,-11.903 49.915,-31.996l0.124,0.123c14.715,-14.716 41.204,-40.867 59.643,-59.379l0,-1.026c11.62,-11.664 19.997,-19.484 19.997,-19.484c33.293,33.293 54.102,78.992 54.102,129.681c0,99.685 -79.748,181.099 -178.794,183.795c-1.417,0.092 -2.879,0.141 -4.385,0.145c-0.187,0.002 -0.375,0.002 -0.563,0.002c-101.379,-0 -183.863,-82.483 -183.863,-183.863c0,-50.69 20.809,-96.388 54.102,-129.681c-0,-0 8.377,7.82 19.997,19.485l-0,1.025c18.439,18.512 44.928,44.663 59.643,59.379l0.124,-0.123c20.094,20.093 23.273,31.962 49.915,31.997Z" style="fill:#d7deed;"/></g></svg>