<?xml version="1.0" encoding="UTF-8" standalone="no"?><!DOCTYPE svg PUBLIC "-//W3C//DTD SVG 1.1//EN" "http://www.w3.org/Graphics/SVG/1.1/DTD/svg11.dtd"><svg width="100%" height="100%" viewBox="0 0 1024 1024" version="1.1" xmlns="http://www.w3.org/2000/svg" xmlns:xlink="http://www.w3.org/1999/xlink" xml:space="preserve" xmlns:serif="http://www.serif.com/" style="fill-rule:evenodd;clip-rule:evenodd;stroke-linejoin:round;stroke-miterlimit:2;"><g id="template"><path d="M511.978,494.081c0.028,-0.054 0.043,-0.08 0.043,-0.08c26.738,-0.027 29.252,-11.333 49.915,-31.995l0.123,0.123c15.434,-15.431 66.347,-66.082 99.638,-99.373l0.001,-1.026l30.25,-29.739c46.083,46.081 74.571,109.677 74.571,179.932c0,138.472 -110.794,251.27 -248.494,254.507c-1.716,0.094 -3.48,0.145 -5.29,0.149c-0.224,0.002 -0.449,0.002 -0.674,0.002c-140.506,0 -254.579,-114.073 -254.579,-254.58c0,-70.254 28.488,-133.851 74.57,-179.931l30.251,29.738l0.001,1.028c33.291,33.291 84.204,83.94 99.638,99.371l0.123,-0.123c20.663,20.663 23.177,31.97 49.915,31.996l-0.002,0.001Z" style="fill:#5b5d6e;"/></g></svg>