<?xml version="1.0" encoding="UTF-8" standalone="no"?><!DOCTYPE svg PUBLIC "-//W3C//DTD SVG 1.1//EN" "http://www.w3.org/Graphics/SVG/1.1/DTD/svg11.dtd"><svg width="100%" height="100%" viewBox="0 0 1024 1024" version="1.1" xmlns="http://www.w3.org/2000/svg" xmlns:xlink="http://www.w3.org/1999/xlink" xml:space="preserve" xmlns:serif="http://www.serif.com/" style="fill-rule:evenodd;clip-rule:evenodd;stroke-linejoin:round;stroke-miterlimit:2;"><g id="template"><path d="M511.978,494.078c0.028,-0.052 0.043,-0.079 0.043,-0.079c13.819,-0.018 36.014,-8.206 49.915,-31.996l0.123,0.123l129.892,-129.122l-0.003,-1.014l59.991,-59.99c61.427,61.428 99.439,146.185 99.439,239.918c0,185.085 -148.131,335.571 -332.305,339.367c-2.024,0.096 -4.095,0.147 -6.215,0.151l-0.795,0.002c-187.469,-0 -339.441,-151.972 -339.441,-339.441c0,-93.734 38.012,-178.49 99.438,-239.918l59.991,59.989l-0.003,1.015l129.893,129.122l0.123,-0.123c13.901,23.79 36.096,31.977 49.915,31.996l-0.001,-0Z" style="fill:#464655;"/></g></svg>